int jingleBells[] = {
  NOTE_G4, NOTE_E5, NOTE_D5,NOTE_C5, NOTE_G4, NOTE_G4, NOTE_E5,NOTE_D5,NOTE_C5,NOTE_A4,
  
  NOTE_A4, NOTE_F5, NOTE_E5,NOTE_D5, NOTE_B4, NOTE_G5, NOTE_G5,NOTE_F5,NOTE_D5,NOTE_E5,
  
  NOTE_G4, NOTE_E5, NOTE_D5,NOTE_C5, NOTE_G4, NOTE_G4,NOTE_E5,NOTE_D5,NOTE_C5,NOTE_A4,
  
   NOTE_A4, NOTE_F5,NOTE_E5, NOTE_D5, NOTE_G5,NOTE_G5,NOTE_G5,NOTE_G5,NOTE_G5,NOTE_A5,NOTE_G5,NOTE_F5,NOTE_D5,NOTE_C5,NOTE_D5,
  
  NOTE_E5, NOTE_E5, NOTE_E5,NOTE_E5, NOTE_E5, NOTE_E5,NOTE_E5,NOTE_G5,NOTE_C5,NOTE_D5,NOTE_E5,
  
  NOTE_F5, NOTE_F5, NOTE_F5,NOTE_F5, NOTE_F5, NOTE_F5,NOTE_E5,NOTE_E5,NOTE_E5,NOTE_E5,NOTE_E5,NOTE_D5,NOTE_D5,NOTE_E5,NOTE_D5,NOTE_G5,

  NOTE_E5, NOTE_E5, NOTE_E5,NOTE_E5, NOTE_E5, NOTE_E5,NOTE_E5,NOTE_G5,NOTE_C5,NOTE_D5,NOTE_E5,
  
  NOTE_F5, NOTE_F5, NOTE_F5,NOTE_F5, NOTE_F5, NOTE_F5,NOTE_E5,NOTE_E5,NOTE_E5,NOTE_E5,NOTE_G5,NOTE_G5,NOTE_F5,NOTE_D5,NOTE_C5
};

int noteDurations1[] = {
  8,8,8,8,2,8,8,8,8,2,
  8,8,8,8,2,8,8,8,8,2,
  8,8,8,8,2,8,8,8,8,2,
  8,8,8,8,8,8,8,16,16,8,8,8,8,4,4,
  8,8,4,8,8,4,8,8,8,8,2,
  8,8,8,16,16,8,8,8,16,16,8,8,8,8,4,4,
  8,8,4,8,8,4,8,8,8,8,2,
  8,8,8,16,16,8,8,8,16,16,8,8,8,8
};
